<mxfile host="app.diagrams.net" modified="2023-02-24T03:39:04.451Z" agent="5.0 (Windows)" version="20.6.2" etag="FORxuGkrvLnkQfX_0qHy" type="github">
  <diagram id="tjRu8gY_2xRiF9Hzwlu4" name="Page-1">
    <mxGraphModel dx="1778" dy="2144" grid="1" gridSize="10" guides="1" tooltips="1" connect="1" arrows="1" fold="1" page="1" pageScale="1" pageWidth="827" pageHeight="1169" math="0" shadow="0">
      <root>
        <mxCell id="0" />
        <mxCell id="1" parent="0" />
        <mxCell id="fzzA2JY4gqWb8yeR5NpG-34" value="&lt;div&gt;SCANNER&lt;/div&gt;&lt;div&gt;PC&lt;br&gt;&lt;/div&gt;" style="whiteSpace=wrap;html=1;aspect=fixed;" vertex="1" parent="1">
          <mxGeometry x="80" y="230" width="80" height="80" as="geometry" />
        </mxCell>
        <mxCell id="fzzA2JY4gqWb8yeR5NpG-38" value="" style="swimlane;startSize=0;dashed=1;" vertex="1" parent="1">
          <mxGeometry x="760" y="-160" width="230" height="210" as="geometry" />
        </mxCell>
        <mxCell id="fzzA2JY4gqWb8yeR5NpG-39" value="Y BOX" style="text;html=1;align=center;verticalAlign=middle;resizable=0;points=[];autosize=1;strokeColor=none;fillColor=none;" vertex="1" parent="fzzA2JY4gqWb8yeR5NpG-38">
          <mxGeometry x="5" width="60" height="30" as="geometry" />
        </mxCell>
        <mxCell id="fzzA2JY4gqWb8yeR5NpG-40" value="" style="group" vertex="1" connectable="0" parent="1">
          <mxGeometry x="201.5" y="-20" width="395" height="450" as="geometry" />
        </mxCell>
        <mxCell id="fzzA2JY4gqWb8yeR5NpG-2" value="PC" style="rounded=1;whiteSpace=wrap;html=1;" vertex="1" parent="fzzA2JY4gqWb8yeR5NpG-40">
          <mxGeometry x="28.5" y="240" width="60" height="120" as="geometry" />
        </mxCell>
        <mxCell id="fzzA2JY4gqWb8yeR5NpG-3" value="" style="rounded=1;whiteSpace=wrap;html=1;" vertex="1" parent="fzzA2JY4gqWb8yeR5NpG-40">
          <mxGeometry x="138.5" y="100" width="30" height="60" as="geometry" />
        </mxCell>
        <mxCell id="fzzA2JY4gqWb8yeR5NpG-4" value="Y" style="rounded=1;whiteSpace=wrap;html=1;" vertex="1" parent="fzzA2JY4gqWb8yeR5NpG-40">
          <mxGeometry x="182.5" y="100" width="30" height="60" as="geometry" />
        </mxCell>
        <mxCell id="fzzA2JY4gqWb8yeR5NpG-5" value="Z" style="rounded=1;whiteSpace=wrap;html=1;" vertex="1" parent="fzzA2JY4gqWb8yeR5NpG-40">
          <mxGeometry x="228.5" y="100" width="30" height="60" as="geometry" />
        </mxCell>
        <mxCell id="fzzA2JY4gqWb8yeR5NpG-13" style="edgeStyle=orthogonalEdgeStyle;rounded=0;orthogonalLoop=1;jettySize=auto;html=1;exitX=1;exitY=0.25;exitDx=0;exitDy=0;entryX=0;entryY=0.25;entryDx=0;entryDy=0;" edge="1" parent="fzzA2JY4gqWb8yeR5NpG-40" source="fzzA2JY4gqWb8yeR5NpG-4" target="fzzA2JY4gqWb8yeR5NpG-5">
          <mxGeometry relative="1" as="geometry" />
        </mxCell>
        <mxCell id="fzzA2JY4gqWb8yeR5NpG-6" value="C" style="rounded=1;whiteSpace=wrap;html=1;" vertex="1" parent="fzzA2JY4gqWb8yeR5NpG-40">
          <mxGeometry x="278.5" y="100" width="30" height="60" as="geometry" />
        </mxCell>
        <mxCell id="fzzA2JY4gqWb8yeR5NpG-14" style="edgeStyle=orthogonalEdgeStyle;rounded=0;orthogonalLoop=1;jettySize=auto;html=1;exitX=1;exitY=0.25;exitDx=0;exitDy=0;entryX=0;entryY=0.25;entryDx=0;entryDy=0;" edge="1" parent="fzzA2JY4gqWb8yeR5NpG-40" source="fzzA2JY4gqWb8yeR5NpG-5" target="fzzA2JY4gqWb8yeR5NpG-6">
          <mxGeometry relative="1" as="geometry" />
        </mxCell>
        <mxCell id="fzzA2JY4gqWb8yeR5NpG-12" style="edgeStyle=orthogonalEdgeStyle;rounded=0;orthogonalLoop=1;jettySize=auto;html=1;exitX=1;exitY=0.25;exitDx=0;exitDy=0;entryX=0;entryY=0.25;entryDx=0;entryDy=0;" edge="1" parent="fzzA2JY4gqWb8yeR5NpG-40" source="fzzA2JY4gqWb8yeR5NpG-7" target="fzzA2JY4gqWb8yeR5NpG-4">
          <mxGeometry relative="1" as="geometry" />
        </mxCell>
        <mxCell id="fzzA2JY4gqWb8yeR5NpG-7" value="X" style="rounded=1;whiteSpace=wrap;html=1;" vertex="1" parent="fzzA2JY4gqWb8yeR5NpG-40">
          <mxGeometry x="138.5" y="100" width="30" height="60" as="geometry" />
        </mxCell>
        <mxCell id="fzzA2JY4gqWb8yeR5NpG-11" style="edgeStyle=orthogonalEdgeStyle;rounded=0;orthogonalLoop=1;jettySize=auto;html=1;entryX=0;entryY=0.25;entryDx=0;entryDy=0;" edge="1" parent="fzzA2JY4gqWb8yeR5NpG-40" source="fzzA2JY4gqWb8yeR5NpG-2" target="fzzA2JY4gqWb8yeR5NpG-7">
          <mxGeometry relative="1" as="geometry" />
        </mxCell>
        <mxCell id="fzzA2JY4gqWb8yeR5NpG-9" value="PANEL&lt;br&gt;IO" style="rounded=1;whiteSpace=wrap;html=1;" vertex="1" parent="fzzA2JY4gqWb8yeR5NpG-40">
          <mxGeometry x="198.5" y="230" width="70" height="50" as="geometry" />
        </mxCell>
        <mxCell id="fzzA2JY4gqWb8yeR5NpG-17" style="edgeStyle=orthogonalEdgeStyle;rounded=0;orthogonalLoop=1;jettySize=auto;html=1;exitX=1;exitY=0.25;exitDx=0;exitDy=0;entryX=0.01;entryY=0.329;entryDx=0;entryDy=0;entryPerimeter=0;" edge="1" parent="fzzA2JY4gqWb8yeR5NpG-40" source="fzzA2JY4gqWb8yeR5NpG-6" target="fzzA2JY4gqWb8yeR5NpG-9">
          <mxGeometry relative="1" as="geometry" />
        </mxCell>
        <mxCell id="fzzA2JY4gqWb8yeR5NpG-18" value="&lt;div&gt;PENDANT&lt;/div&gt;" style="rounded=1;whiteSpace=wrap;html=1;" vertex="1" parent="fzzA2JY4gqWb8yeR5NpG-40">
          <mxGeometry x="203.5" y="330" width="60" height="80" as="geometry" />
        </mxCell>
        <mxCell id="fzzA2JY4gqWb8yeR5NpG-19" value="" style="shape=flexArrow;endArrow=classic;html=1;rounded=0;width=38.285714285714285;endSize=8.24;entryX=0.5;entryY=1;entryDx=0;entryDy=0;exitX=0.5;exitY=0;exitDx=0;exitDy=0;" edge="1" parent="fzzA2JY4gqWb8yeR5NpG-40" source="fzzA2JY4gqWb8yeR5NpG-18" target="fzzA2JY4gqWb8yeR5NpG-9">
          <mxGeometry width="50" height="50" relative="1" as="geometry">
            <mxPoint x="278.5" y="340" as="sourcePoint" />
            <mxPoint x="268.5" y="290" as="targetPoint" />
          </mxGeometry>
        </mxCell>
        <mxCell id="fzzA2JY4gqWb8yeR5NpG-20" value="" style="ellipse;whiteSpace=wrap;html=1;aspect=fixed;" vertex="1" parent="fzzA2JY4gqWb8yeR5NpG-40">
          <mxGeometry x="138.5" y="20" width="30" height="30" as="geometry" />
        </mxCell>
        <mxCell id="fzzA2JY4gqWb8yeR5NpG-21" value="" style="ellipse;whiteSpace=wrap;html=1;aspect=fixed;" vertex="1" parent="fzzA2JY4gqWb8yeR5NpG-40">
          <mxGeometry x="182.5" y="20" width="30" height="30" as="geometry" />
        </mxCell>
        <mxCell id="fzzA2JY4gqWb8yeR5NpG-22" value="" style="ellipse;whiteSpace=wrap;html=1;aspect=fixed;" vertex="1" parent="fzzA2JY4gqWb8yeR5NpG-40">
          <mxGeometry x="228.5" y="20" width="30" height="30" as="geometry" />
        </mxCell>
        <mxCell id="fzzA2JY4gqWb8yeR5NpG-23" value="" style="ellipse;whiteSpace=wrap;html=1;aspect=fixed;" vertex="1" parent="fzzA2JY4gqWb8yeR5NpG-40">
          <mxGeometry x="278.5" y="20" width="30" height="30" as="geometry" />
        </mxCell>
        <mxCell id="fzzA2JY4gqWb8yeR5NpG-24" value="" style="shape=flexArrow;endArrow=classic;startArrow=classic;html=1;rounded=0;entryX=0.5;entryY=1;entryDx=0;entryDy=0;exitX=0.5;exitY=0;exitDx=0;exitDy=0;" edge="1" parent="fzzA2JY4gqWb8yeR5NpG-40" source="fzzA2JY4gqWb8yeR5NpG-7" target="fzzA2JY4gqWb8yeR5NpG-20">
          <mxGeometry width="100" height="100" relative="1" as="geometry">
            <mxPoint x="238.5" y="180" as="sourcePoint" />
            <mxPoint x="338.5" y="80" as="targetPoint" />
            <Array as="points">
              <mxPoint x="153.5" y="80" />
            </Array>
          </mxGeometry>
        </mxCell>
        <mxCell id="fzzA2JY4gqWb8yeR5NpG-30" value="" style="shape=flexArrow;endArrow=classic;startArrow=classic;html=1;rounded=0;" edge="1" parent="fzzA2JY4gqWb8yeR5NpG-40">
          <mxGeometry width="100" height="100" relative="1" as="geometry">
            <mxPoint x="198.5" y="100" as="sourcePoint" />
            <mxPoint x="198.5" y="50" as="targetPoint" />
            <Array as="points">
              <mxPoint x="198.5" y="80" />
            </Array>
          </mxGeometry>
        </mxCell>
        <mxCell id="fzzA2JY4gqWb8yeR5NpG-31" value="" style="shape=flexArrow;endArrow=classic;startArrow=classic;html=1;rounded=0;" edge="1" parent="fzzA2JY4gqWb8yeR5NpG-40">
          <mxGeometry width="100" height="100" relative="1" as="geometry">
            <mxPoint x="243.20999999999998" y="100" as="sourcePoint" />
            <mxPoint x="243.20999999999998" y="50" as="targetPoint" />
            <Array as="points">
              <mxPoint x="243.20999999999998" y="80" />
            </Array>
          </mxGeometry>
        </mxCell>
        <mxCell id="fzzA2JY4gqWb8yeR5NpG-32" value="" style="shape=flexArrow;endArrow=classic;startArrow=classic;html=1;rounded=0;" edge="1" parent="fzzA2JY4gqWb8yeR5NpG-40">
          <mxGeometry width="100" height="100" relative="1" as="geometry">
            <mxPoint x="293.21000000000026" y="100" as="sourcePoint" />
            <mxPoint x="293.21000000000026" y="50" as="targetPoint" />
            <Array as="points">
              <mxPoint x="293.21" y="80" />
            </Array>
          </mxGeometry>
        </mxCell>
        <mxCell id="fzzA2JY4gqWb8yeR5NpG-35" value="" style="endArrow=none;dashed=1;html=1;rounded=0;entryX=0;entryY=0.25;entryDx=0;entryDy=0;exitX=1;exitY=0.25;exitDx=0;exitDy=0;" edge="1" parent="fzzA2JY4gqWb8yeR5NpG-40" source="fzzA2JY4gqWb8yeR5NpG-34" target="fzzA2JY4gqWb8yeR5NpG-2">
          <mxGeometry width="50" height="50" relative="1" as="geometry">
            <mxPoint x="-41.5" y="280" as="sourcePoint" />
            <mxPoint x="8.5" y="230" as="targetPoint" />
          </mxGeometry>
        </mxCell>
        <mxCell id="fzzA2JY4gqWb8yeR5NpG-36" value="" style="swimlane;startSize=0;dashed=1;" vertex="1" parent="fzzA2JY4gqWb8yeR5NpG-40">
          <mxGeometry width="395" height="450" as="geometry" />
        </mxCell>
        <mxCell id="fzzA2JY4gqWb8yeR5NpG-37" value="PANEL" style="text;html=1;align=center;verticalAlign=middle;resizable=0;points=[];autosize=1;strokeColor=none;fillColor=none;" vertex="1" parent="fzzA2JY4gqWb8yeR5NpG-36">
          <mxGeometry x="5" width="60" height="30" as="geometry" />
        </mxCell>
      </root>
    </mxGraphModel>
  </diagram>
</mxfile>
